<svg width="42" height="42" viewBox="0 0 42 42" fill="none" xmlns="http://www.w3.org/2000/svg">
<path d="M35.2296 28.4608C33.6681 28.4596 32.1545 29.0007 30.9477 29.9917L27.6882 26.7322C28.9764 25.2322 29.719 23.3405 29.7953 21.3649L36.7097 21.1089C36.9026 21.734 37.3166 22.2673 37.8742 22.6091C38.4319 22.9509 39.0951 23.0778 39.7395 22.9659C40.384 22.8541 40.9656 22.5112 41.3755 22.0014C41.7854 21.4917 41.9954 20.85 41.9664 20.1966C41.9373 19.5431 41.6711 18.9227 41.2175 18.4513C40.764 17.98 40.1542 17.6902 39.5023 17.636C38.8505 17.5818 38.2012 17.7671 37.6761 18.1571C37.151 18.5471 36.786 19.1151 36.6495 19.7548L29.7513 20.01C29.6036 18.7279 29.1757 17.4939 28.4979 16.3956C27.8202 15.2972 26.9093 14.3613 25.8296 13.6542L27.1235 11.302C28.0866 11.6381 29.1409 11.6002 30.0773 11.1957C31.0138 10.7911 31.764 10.0495 32.1794 9.11785C32.5949 8.18618 32.6451 7.13244 32.3201 6.16549C31.9952 5.19854 31.3189 4.38896 30.4251 3.8972C29.5314 3.40545 28.4855 3.26741 27.4948 3.51047C26.5041 3.75352 25.6409 4.35991 25.0762 5.20946C24.5116 6.059 24.2867 7.08969 24.4462 8.09723C24.6056 9.10478 25.1378 10.0156 25.9373 10.6493L24.6427 13.0028C23.1202 12.3056 21.4295 12.0605 19.7717 12.2964C18.1139 12.5324 16.5588 13.2397 15.2914 14.334L12.0319 11.0745C13.1332 9.72747 13.6748 8.00868 13.5444 6.27361C13.414 4.53855 12.6218 2.91997 11.3315 1.75266C10.0412 0.585356 8.35162 -0.0413696 6.61221 0.00212105C4.87281 0.0456117 3.21665 0.755992 1.98632 1.98632C0.755991 3.21665 0.0456117 4.87281 0.00212104 6.61221C-0.0413696 8.35162 0.585356 10.0412 1.75266 11.3315C2.91997 12.6218 4.53855 13.414 6.27361 13.5444C8.00868 13.6748 9.72747 13.1332 11.0745 12.0319L14.334 15.2914C13.4714 16.2872 12.8461 17.4658 12.5052 18.7383C12.1642 20.0108 12.1165 21.3442 12.3657 22.6378L6.41881 24.2384C6.04185 23.507 5.40948 22.9393 4.64171 22.6432C3.87393 22.347 3.02416 22.3431 2.25364 22.632C1.48312 22.9209 0.845455 23.4826 0.461642 24.2105C0.0778296 24.9384 -0.0254269 25.7819 0.171465 26.5809C0.368357 27.3799 0.851698 28.0788 1.52978 28.545C2.20786 29.0113 3.03349 29.2124 3.85003 29.1102C4.66656 29.008 5.41718 28.6097 5.95946 27.9907C6.50174 27.3718 6.79795 26.5753 6.79189 25.7524C6.79189 25.6847 6.77564 25.617 6.7709 25.5493L12.7218 23.9473C13.4069 25.8708 14.7369 27.4977 16.4858 28.5515L15.0524 31.4129C13.9136 31.0315 12.6727 31.0956 11.5793 31.5924C10.486 32.0891 9.62134 32.9816 9.1595 34.0901C8.69765 35.1987 8.67288 36.441 9.09014 37.5671C9.50741 38.6932 10.3358 39.6195 11.4084 40.1594C12.4811 40.6993 13.7185 40.8129 14.8716 40.4773C16.0246 40.1416 17.0077 39.3816 17.623 38.3503C18.2383 37.319 18.4401 36.0929 18.1877 34.9188C17.9354 33.7447 17.2477 32.7097 16.263 32.0223L17.693 29.1609C19.1883 29.7739 20.8242 29.9609 22.4193 29.7013C24.0144 29.4416 25.5065 28.7453 26.7301 27.6896L29.9896 30.9491C29.0181 32.1394 28.4805 33.625 28.4653 35.1615C28.4501 36.6979 28.9583 38.1938 29.9062 39.4031C30.8541 40.6125 32.1853 41.4632 33.6809 41.8155C35.1765 42.1678 36.7475 42.0006 38.1355 41.3415C39.5235 40.6824 40.6458 39.5706 41.318 38.1889C41.9902 36.8072 42.1722 35.2378 41.8341 33.739C41.4959 32.2401 40.6578 30.9009 39.4575 29.9416C38.2572 28.9824 36.7662 28.4601 35.2296 28.4608ZM39.2922 18.9815C39.56 18.9815 39.8218 19.0609 40.0445 19.2097C40.2672 19.3585 40.4408 19.57 40.5433 19.8175C40.6457 20.0649 40.6726 20.3372 40.6203 20.5999C40.5681 20.8626 40.4391 21.1039 40.2497 21.2932C40.0603 21.4826 39.819 21.6116 39.5563 21.6639C39.2937 21.7161 39.0214 21.6893 38.7739 21.5868C38.5265 21.4843 38.315 21.3107 38.1662 21.088C38.0174 20.8653 37.938 20.6035 37.938 20.3357C37.938 19.9765 38.0807 19.6321 38.3346 19.3781C38.5886 19.1242 38.933 18.9815 39.2922 18.9815ZM28.4587 4.76265C28.9944 4.76265 29.518 4.92149 29.9634 5.21909C30.4088 5.51669 30.7559 5.93968 30.9609 6.43456C31.1659 6.92945 31.2196 7.47401 31.115 7.99938C31.0105 8.52475 30.7526 9.00733 30.3738 9.3861C29.9951 9.76487 29.5125 10.0228 28.9871 10.1273C28.4617 10.2318 27.9172 10.1782 27.4223 9.9732C26.9274 9.76821 26.5044 9.42107 26.2068 8.97569C25.9092 8.5303 25.7504 8.00667 25.7504 7.47101C25.7504 6.75271 26.0357 6.06382 26.5436 5.55591C27.0516 5.04799 27.7404 4.76265 28.4587 4.76265ZM3.40644 27.7837C3.00469 27.7837 2.61197 27.6645 2.27793 27.4413C1.94389 27.2181 1.68354 26.9009 1.52979 26.5297C1.37605 26.1586 1.33583 25.7502 1.4142 25.3561C1.49258 24.9621 1.68604 24.6002 1.97012 24.3161C2.2542 24.032 2.61613 23.8386 3.01016 23.7602C3.40419 23.6818 3.81261 23.722 4.18377 23.8758C4.55494 24.0295 4.87218 24.2899 5.09538 24.6239C5.31858 24.9579 5.43771 25.3507 5.43771 25.7524C5.43771 26.2911 5.2237 26.8078 4.84276 27.1887C4.46183 27.5697 3.94517 27.7837 3.40644 27.7837ZM16.9482 35.9087C16.9482 36.5783 16.7497 37.2329 16.3777 37.7896C16.0057 38.3463 15.4769 38.7803 14.8583 39.0365C14.2397 39.2927 13.559 39.3598 12.9023 39.2291C12.2456 39.0985 11.6424 38.7761 11.1689 38.3026C10.6954 37.8292 10.373 37.2259 10.2424 36.5692C10.1118 35.9125 10.1788 35.2318 10.435 34.6132C10.6913 33.9946 11.1252 33.4658 11.6819 33.0938C12.2387 32.7219 12.8932 32.5233 13.5628 32.5233C14.4603 32.5244 15.3208 32.8814 15.9555 33.5161C16.5901 34.1507 16.9471 35.0112 16.9482 35.9087ZM1.37517 6.79392C1.37307 5.91381 1.58545 5.04644 1.99395 4.26687C2.40244 3.4873 2.99473 2.81901 3.71958 2.31983C4.44443 1.82064 5.28 1.50559 6.15399 1.40195C7.02798 1.29831 7.91406 1.40919 8.73555 1.725C9.55705 2.04081 10.2892 2.55204 10.8687 3.21445C11.4482 3.87685 11.8576 4.67049 12.0614 5.52668C12.2652 6.38287 12.2573 7.27582 12.0383 8.12827C11.8194 8.98073 11.3961 9.767 10.805 10.4191C10.8362 10.3429 10.853 10.2616 10.8544 10.1794C10.8561 9.64566 10.7519 9.11691 10.5478 8.62377C10.3437 8.13062 10.0438 7.68288 9.66545 7.30647C9.39562 7.03667 9.0893 6.80603 8.75544 6.62126C9.12139 6.23759 9.36667 5.75494 9.46088 5.23316C9.55508 4.71139 9.49406 4.17344 9.28538 3.68602C9.0767 3.1986 8.72954 2.78316 8.28696 2.4912C7.84437 2.19924 7.32582 2.04361 6.79561 2.04361C6.2654 2.04361 5.74685 2.19924 5.30426 2.4912C4.86168 2.78316 4.51452 3.1986 4.30584 3.68602C4.09716 4.17344 4.03614 4.71139 4.13034 5.23316C4.22455 5.75494 4.46983 6.23759 4.83577 6.62126C4.19831 6.97147 3.66655 7.4864 3.29602 8.11228C2.9255 8.73815 2.7298 9.45203 2.72935 10.1794C2.73073 10.2608 2.74679 10.3413 2.77675 10.417C1.87548 9.4255 1.37581 8.13384 1.37517 6.79392ZM6.79189 6.11683C6.52405 6.11683 6.26224 6.03741 6.03954 5.88861C5.81685 5.73981 5.64328 5.52831 5.54079 5.28087C5.43829 5.03343 5.41148 4.76115 5.46373 4.49846C5.51598 4.23578 5.64495 3.99449 5.83434 3.8051C6.02372 3.61572 6.26501 3.48674 6.5277 3.43449C6.79038 3.38224 7.06266 3.40906 7.31011 3.51155C7.55755 3.61405 7.76904 3.78762 7.91784 4.01031C8.06664 4.233 8.14606 4.49482 8.14606 4.76265C8.14606 5.1218 8.00339 5.46624 7.74943 5.7202C7.49548 5.97416 7.15104 6.11683 6.79189 6.11683ZM6.79189 7.47101C7.39232 7.471 7.97573 7.67053 8.45041 8.03821C8.9251 8.4059 9.26414 8.92091 9.41425 9.50227H4.16884C4.31971 8.9212 4.65905 8.40657 5.13371 8.039C5.60837 7.67142 6.19154 7.47167 6.79189 7.47101ZM3.16946 10.8091C3.24492 10.8391 3.32522 10.8552 3.40644 10.8565H10.1773C10.2598 10.8553 10.3413 10.8388 10.4177 10.8077C9.42668 11.7093 8.13505 12.209 6.79527 12.209C5.45549 12.209 4.16386 11.7093 3.17284 10.8077L3.16946 10.8091ZM13.5628 21.0128C13.5628 19.5397 13.9996 18.0997 14.818 16.8749C15.6364 15.6501 16.7996 14.6955 18.1605 14.1318C19.5215 13.568 21.019 13.4205 22.4638 13.7079C23.9085 13.9953 25.2357 14.7047 26.2773 15.7463C27.3189 16.7879 28.0282 18.115 28.3156 19.5598C28.603 21.0045 28.4555 22.5021 27.8918 23.863C27.3281 25.2239 26.3734 26.3872 25.1486 27.2056C23.9238 28.0239 22.4838 28.4608 21.0108 28.4608C19.0361 28.4584 17.1431 27.673 15.7468 26.2767C14.3505 24.8805 13.5651 22.9874 13.5628 21.0128ZM31.6072 39.2468C31.6827 39.2768 31.763 39.2929 31.8442 39.2942H38.6151C38.6975 39.293 38.779 39.2765 38.8554 39.2454C37.8644 40.1471 36.5728 40.6467 35.233 40.6467C33.8932 40.6467 32.6016 40.1471 31.6106 39.2454L31.6072 39.2468ZM35.2296 34.5546C34.9618 34.5546 34.7 34.4751 34.4773 34.3263C34.2546 34.1775 34.081 33.9661 33.9785 33.7186C33.876 33.4712 33.8492 33.1989 33.9015 32.9362C33.9537 32.6735 34.0827 32.4322 34.2721 32.2428C34.4615 32.0535 34.7028 31.9245 34.9654 31.8722C35.2281 31.82 35.5004 31.8468 35.7478 31.9493C35.9953 32.0518 36.2068 32.2254 36.3556 32.448C36.5044 32.6707 36.5838 32.9326 36.5838 33.2004C36.5838 33.5595 36.4411 33.904 36.1872 34.1579C35.9332 34.4119 35.5888 34.5546 35.2296 34.5546ZM35.2296 35.9087C35.8301 35.9087 36.4135 36.1083 36.8882 36.476C37.3628 36.8436 37.7019 37.3586 37.852 37.94H32.6066C32.7575 37.3589 33.0968 36.8443 33.5715 36.4767C34.0461 36.1092 34.6293 35.9094 35.2296 35.9087ZM39.2421 38.8568C39.2735 38.7807 39.2905 38.6994 39.2922 38.6171C39.2939 38.0834 39.1897 37.5547 38.9856 37.0615C38.7815 36.5684 38.4816 36.1206 38.1032 35.7442C37.8334 35.4744 37.527 35.2438 37.1932 35.059C37.5591 34.6753 37.8044 34.1927 37.8986 33.6709C37.9928 33.1491 37.9318 32.6112 37.7231 32.1238C37.5144 31.6363 37.1673 31.2209 36.7247 30.9289C36.2821 30.637 35.7636 30.4814 35.2333 30.4814C34.7031 30.4814 34.1846 30.637 33.742 30.9289C33.2994 31.2209 32.9523 31.6363 32.7436 32.1238C32.5349 32.6112 32.4739 33.1491 32.5681 33.6709C32.6623 34.1927 32.9076 34.6753 33.2735 35.059C32.636 35.4092 32.1043 35.9241 31.7338 36.55C31.3632 37.1759 31.1675 37.8898 31.1671 38.6171C31.1685 38.6985 31.1845 38.779 31.2145 38.8548C30.5104 38.0777 30.047 37.1129 29.8806 36.0776C29.7141 35.0423 29.8518 33.9809 30.2768 33.0223C30.7018 32.0637 31.3959 31.249 32.2749 30.6772C33.1539 30.1054 34.18 29.8011 35.2286 29.8011C36.2772 29.8011 37.3033 30.1054 38.1823 30.6772C39.0613 31.249 39.7554 32.0637 40.1804 33.0223C40.6055 33.9809 40.7431 35.0423 40.5766 36.0776C40.4102 37.1129 39.9468 38.0777 39.2427 38.8548L39.2421 38.8568Z" fill="#2E2C28"/>
</svg>
