<svg width="38" height="38" viewBox="0 0 38 38" fill="none" xmlns="http://www.w3.org/2000/svg">
<circle opacity="0.1" cx="18.6002" cy="18.8006" r="18.6002" fill="white"/>
<path d="M24.898 13.0051H12.098C11.218 13.0051 10.506 13.6801 10.506 14.5051L10.498 23.5051C10.498 24.3301 11.218 25.0051 12.098 25.0051H24.898C25.778 25.0051 26.498 24.3301 26.498 23.5051V14.5051C26.498 13.6801 25.778 13.0051 24.898 13.0051ZM24.578 16.1926L18.922 19.5076C18.666 19.6576 18.33 19.6576 18.074 19.5076L12.418 16.1926C12.3378 16.1504 12.2676 16.0934 12.2116 16.025C12.1555 15.9566 12.1149 15.8782 12.0921 15.7947C12.0693 15.7111 12.0648 15.6241 12.079 15.5389C12.0931 15.4536 12.1255 15.372 12.1743 15.2989C12.223 15.2257 12.2871 15.1626 12.3626 15.1134C12.4381 15.0641 12.5235 15.0298 12.6136 15.0124C12.7037 14.9949 12.7967 14.9949 12.8868 15.0121C12.9769 15.0293 13.0624 15.0635 13.138 15.1126L18.498 18.2551L23.858 15.1126C23.9337 15.0635 24.0191 15.0293 24.1093 15.0121C24.1994 14.9949 24.2924 14.9949 24.3825 15.0124C24.4726 15.0298 24.5579 15.0641 24.6335 15.1134C24.709 15.1626 24.7731 15.2257 24.8218 15.2989C24.8706 15.372 24.903 15.4536 24.9171 15.5389C24.9312 15.6241 24.9268 15.7111 24.904 15.7947C24.8812 15.8782 24.8406 15.9566 24.7845 16.025C24.7285 16.0934 24.6583 16.1504 24.578 16.1926Z" fill="white"/>
</svg>
