<svg width="38" height="38" viewBox="0 0 38 38" fill="none" xmlns="http://www.w3.org/2000/svg">
<circle opacity="0.1" cx="18.6002" cy="18.6002" r="18.6002" fill="white"/>
<path d="M26.248 23.064C26.248 23.352 26.188 23.648 26.0603 23.936C25.9326 24.224 25.7673 24.496 25.5495 24.752C25.1814 25.184 24.7758 25.496 24.3177 25.696C23.867 25.896 23.3787 26 22.853 26C22.0868 26 21.2681 25.808 20.4043 25.416C19.5405 25.024 18.6767 24.496 17.8204 23.832C16.9477 23.1521 16.1241 22.4033 15.3567 21.592C14.5971 20.7776 13.8966 19.9031 13.2611 18.976C12.6451 18.064 12.1494 17.152 11.7889 16.248C11.4283 15.336 11.248 14.464 11.248 13.632C11.248 13.088 11.3382 12.568 11.5185 12.088C11.6987 11.6 11.9842 11.152 12.3822 10.752C12.863 10.248 13.3888 10 13.9446 10C14.1549 10 14.3652 10.048 14.553 10.144C14.7483 10.24 14.9211 10.384 15.0563 10.592L16.7989 13.208C16.9341 13.408 17.0317 13.592 17.0993 13.768C17.1669 13.936 17.2045 14.104 17.2045 14.256C17.2045 14.448 17.1519 14.64 17.0467 14.824C16.9491 15.008 16.8064 15.2 16.6261 15.392L16.0553 16.024C15.9726 16.112 15.9351 16.216 15.9351 16.344C15.9351 16.408 15.9426 16.464 15.9576 16.528C15.9801 16.592 16.0027 16.64 16.0177 16.688C16.1529 16.952 16.3858 17.296 16.7162 17.712C17.0543 18.128 17.4148 18.552 17.8054 18.976C18.211 19.4 18.6016 19.792 18.9997 20.152C19.3903 20.504 19.7132 20.744 19.9686 20.888C20.0062 20.904 20.0513 20.928 20.1038 20.952C20.1639 20.976 20.224 20.984 20.2916 20.984C20.4193 20.984 20.517 20.936 20.5996 20.848L21.1704 20.248C21.3582 20.048 21.5385 19.896 21.7112 19.8C21.884 19.688 22.0568 19.632 22.2445 19.632C22.3873 19.632 22.5375 19.664 22.7027 19.736C22.868 19.808 23.0407 19.912 23.2285 20.048L25.7147 21.928C25.91 22.072 26.0452 22.24 26.1279 22.44C26.203 22.64 26.248 22.84 26.248 23.064Z" fill="white"/>
</svg>
