<svg width="40" height="39" viewBox="0 0 40 39" fill="none" xmlns="http://www.w3.org/2000/svg">
<circle cx="19.8654" cy="19.2885" r="18.8176" stroke="white" stroke-width="0.941755"/>
<path d="M19.7469 10.3591C17.1912 10.3591 16.8698 10.3709 15.8657 10.4156C14.8615 10.4627 14.1776 10.6205 13.5784 10.8536C12.9499 11.09 12.3806 11.4608 11.9103 11.9401C11.4313 12.4106 11.0605 12.9798 10.8238 13.6082C10.5907 14.2062 10.4318 14.8913 10.3859 15.8919C10.3411 16.8984 10.3293 17.2186 10.3293 19.7779C10.3293 22.3347 10.3411 22.6549 10.3859 23.6591C10.4329 24.662 10.5907 25.346 10.8238 25.9452C11.0651 26.5644 11.3865 27.0894 11.9103 27.6133C12.433 28.1371 12.958 28.4597 13.5772 28.6998C14.1776 28.9329 14.8604 29.0918 15.8633 29.1377C16.8687 29.1825 17.1889 29.1942 19.7469 29.1942C22.3049 29.1942 22.624 29.1825 23.6293 29.1377C24.6311 29.0906 25.3174 28.9329 25.9166 28.6998C26.5447 28.4633 27.1136 28.0925 27.5835 27.6133C28.1073 27.0894 28.4287 26.5644 28.67 25.9452C28.9019 25.346 29.0609 24.662 29.1079 23.6591C29.1527 22.6549 29.1644 22.3347 29.1644 19.7767C29.1644 17.2186 29.1527 16.8984 29.1079 15.8931C29.0609 14.8913 28.9019 14.2062 28.67 13.6082C28.4333 12.9798 28.0625 12.4106 27.5835 11.9401C27.1133 11.4606 26.544 11.0898 25.9154 10.8536C25.315 10.6205 24.6299 10.4615 23.6281 10.4156C22.6228 10.3709 22.3038 10.3591 19.7445 10.3591H19.7481H19.7469ZM18.9028 12.0566H19.7481C22.2626 12.0566 22.5604 12.0649 23.5528 12.1108C24.471 12.152 24.9701 12.3062 25.3021 12.4345C25.7412 12.6052 26.0555 12.81 26.3851 13.1397C26.7147 13.4693 26.9184 13.7824 27.0891 14.2227C27.2185 14.5535 27.3716 15.0526 27.4128 15.9708C27.4587 16.9632 27.4681 17.261 27.4681 19.7743C27.4681 22.2876 27.4587 22.5866 27.4128 23.579C27.3716 24.4972 27.2174 24.9952 27.0891 25.3272C26.9381 25.7361 26.6971 26.1058 26.3839 26.409C26.0543 26.7386 25.7412 26.9423 25.3009 27.113C24.9713 27.2424 24.4722 27.3955 23.5528 27.4379C22.5604 27.4826 22.2626 27.4932 19.7481 27.4932C17.2336 27.4932 16.9346 27.4826 15.9422 27.4379C15.024 27.3955 14.526 27.2424 14.1941 27.113C13.785 26.9622 13.4149 26.7216 13.1111 26.409C12.7976 26.1053 12.5563 25.7352 12.4047 25.326C12.2764 24.9952 12.1222 24.4961 12.081 23.5778C12.0363 22.5855 12.0269 22.2876 12.0269 19.772C12.0269 17.2575 12.0363 16.9608 12.081 15.9685C12.1234 15.0502 12.2764 14.5511 12.4059 14.2191C12.5766 13.7801 12.7814 13.4657 13.1111 13.1361C13.4407 12.8065 13.7538 12.6029 14.1941 12.4322C14.526 12.3027 15.024 12.1496 15.9422 12.1073C16.811 12.0672 17.1477 12.0555 18.9028 12.0543V12.0566ZM24.7747 13.62C24.6263 13.62 24.4793 13.6492 24.3422 13.706C24.2051 13.7628 24.0805 13.846 23.9756 13.951C23.8706 14.0559 23.7874 14.1805 23.7306 14.3176C23.6738 14.4547 23.6446 14.6017 23.6446 14.7501C23.6446 14.8985 23.6738 15.0454 23.7306 15.1825C23.7874 15.3196 23.8706 15.4442 23.9756 15.5492C24.0805 15.6541 24.2051 15.7374 24.3422 15.7941C24.4793 15.8509 24.6263 15.8802 24.7747 15.8802C25.0744 15.8802 25.3619 15.7611 25.5738 15.5492C25.7857 15.3372 25.9048 15.0498 25.9048 14.7501C25.9048 14.4503 25.7857 14.1629 25.5738 13.951C25.3619 13.739 25.0744 13.62 24.7747 13.62ZM19.7481 14.9408C19.1066 14.9308 18.4695 15.0485 17.874 15.287C17.2784 15.5256 16.7362 15.8803 16.2791 16.3304C15.8219 16.7805 15.4588 17.317 15.211 17.9088C14.9632 18.5005 14.8355 19.1357 14.8355 19.7773C14.8355 20.4188 14.9632 21.054 15.211 21.6458C15.4588 22.2375 15.8219 22.7741 16.2791 23.2242C16.7362 23.6743 17.2784 24.0289 17.874 24.2675C18.4695 24.5061 19.1066 24.6238 19.7481 24.6138C21.0177 24.594 22.2287 24.0757 23.1195 23.1708C24.0104 22.266 24.5097 21.0471 24.5097 19.7773C24.5097 18.5075 24.0104 17.2886 23.1195 16.3837C22.2287 15.4788 21.0177 14.9606 19.7481 14.9408ZM19.7481 16.6371C20.5807 16.6371 21.3793 16.9679 21.9681 17.5567C22.5569 18.1455 22.8877 18.944 22.8877 19.7767C22.8877 20.6093 22.5569 21.4079 21.9681 21.9967C21.3793 22.5855 20.5807 22.9163 19.7481 22.9163C18.9154 22.9163 18.1168 22.5855 17.5281 21.9967C16.9393 21.4079 16.6085 20.6093 16.6085 19.7767C16.6085 18.944 16.9393 18.1455 17.5281 17.5567C18.1168 16.9679 18.9154 16.6371 19.7481 16.6371Z" fill="white"/>
</svg>
