<svg width="38" height="38" viewBox="0 0 38 38" fill="none" xmlns="http://www.w3.org/2000/svg">
<circle opacity="0.1" cx="18.6002" cy="19.0009" r="18.6002" fill="white"/>
<path fill-rule="evenodd" clip-rule="evenodd" d="M18.3054 28.2338L18.3034 28.2323L18.2984 28.2285L18.2809 28.2148C18.2658 28.203 18.2442 28.1861 18.2162 28.164C18.1606 28.1199 18.08 28.0555 17.9782 27.9724C17.7748 27.8062 17.4861 27.5649 17.1404 27.2608C16.4502 26.6537 15.5275 25.7916 14.6022 24.7742C13.6793 23.7594 12.7384 22.5734 12.0246 21.3176C11.315 20.0692 10.7969 18.6944 10.7969 17.3175C10.7969 15.2178 11.6397 13.2042 13.14 11.7195C14.6403 10.2348 16.6751 9.40076 18.7969 9.40076C20.9186 9.40076 22.9534 10.2348 24.4538 11.7195C25.954 13.2042 26.7969 15.2178 26.7969 17.3175C26.7969 18.6944 26.2788 20.0692 25.5691 21.3176C24.8554 22.5734 23.9145 23.7594 22.9915 24.7742C22.0662 25.7916 21.1436 26.6537 20.4534 27.2608C20.1077 27.5649 19.819 27.8062 19.6155 27.9724C19.5138 28.0555 19.4332 28.1199 19.3775 28.164C19.3496 28.1861 19.3279 28.203 19.3129 28.2148L19.2954 28.2285L19.2904 28.2323L19.2889 28.2334C19.2889 28.2334 19.288 28.2342 18.7969 27.6092L19.288 28.2342C18.9991 28.4565 18.5942 28.4562 18.3054 28.2338ZM18.7969 27.6092L18.3054 28.2338C18.3054 28.2338 18.3058 28.2342 18.7969 27.6092ZM21.1969 17.3175C21.1969 18.6292 20.1224 19.6925 18.7969 19.6925C17.4714 19.6925 16.3969 18.6292 16.3969 17.3175C16.3969 16.0058 17.4714 14.9425 18.7969 14.9425C20.1224 14.9425 21.1969 16.0058 21.1969 17.3175Z" fill="white"/>
</svg>
